PathFileType	4	(X/Y/Z)	Patient4_TMGait_0pt4_03_left_33.trc.trc
DataRate	CameraRate	NumFrames	NumMarkers	Units	OrigDataRate	OrigDataStartFrame	OrigNumFrames
72.538860103627	72.538860103627	4	33	mm	72.538860103627	53	       141
Frame#	Time	Sacral			L.Shoulder			Chest			R.Shoulder			Neck			R.ASIS			L.ASIS			R.Thigh.Superior			R.Thigh.Lateral			R.Thigh.Inferior			R.Patella			L.Thigh.Superior			L.Thigh.Lateral			L.Thigh.Inferior			L.Patella			L.Shank.Superior			L.Shank.Lateral			L.Shank.Inferior			R.Shank.Superior			R.Shank.Lateral			R.Shank.Inferior			R.Heel			R.Midfoot.Superior			R.Midfoot.Lateral			R.Toe			L.Heel			L.Midfoot.Lateral			L.Midfoot.Superior			L.Toe			L.Elbow			L.Wrist			R.Elbow			R.Wrist			
		X1	Y1	Z1	X2	Y2	Z2	X3	Y3	Z3	X4	Y4	Z4	X5	Y5	Z5	X6	Y6	Z6	X7	Y7	Z7	X8	Y8	Z8	X9	Y9	Z9	X10	Y10	Z10	X11	Y11	Z11	X12	Y12	Z12	X13	Y13	Z13	X14	Y14	Z14	X15	Y15	Z15	X16	Y16	Z16	X17	Y17	Z17	X18	Y18	Z18	X19	Y19	Z19	X20	Y20	Z20	X21	Y21	Z21	X22	Y22	Z22	X23	Y23	Z23	X24	Y24	Z24	X25	Y25	Z25	X26	Y26	Z26	X27	Y27	Z27	X28	Y28	Z28	X29	Y29	Z29	X30	Y30	Z30	X31	Y31	Z31	X32	Y32	Z32	X33	Y33	Z33	

53	44.266857142857	858.573903792496	1008.021576160824	410.617629684252	1037.838825596535	1432.852894070122	211.372366056007	1140.822817277500	1370.627631251873	374.936228288504	1055.976638595088	1446.295059478380	547.668907554966	1017.281878307400	1499.215147318059	366.152864069386	1090.376730618898	951.501788412693	525.704132890984	1072.769515898310	963.211970974216	252.312803755161	1171.121117594512	777.209657627113	499.050205578610	1130.864700469812	658.628357458968	578.087872561529	1218.769617940414	615.882445157106	499.602938879178	1236.594037555125	505.085713420693	525.954072882000	1124.152243504577	751.697912439657	279.180021825412	1033.121691916163	634.247524057294	226.916483079388	1121.222005156472	558.650076177961	286.158275329204	1122.044959654686	489.406396250653	297.562031735362	1093.922586490539	416.809596410548	292.500702556381	1001.189730467121	302.904992644704	246.400316420632	1051.599157832795	191.879424476849	318.178375638802	1161.732715217757	430.203798730302	538.449920650579	1042.956459161204	392.047046396369	605.275292813328	1027.766729781729	280.709439652322	561.431093513241	829.109045690388	222.054688687264	544.292103217963	995.789831938030	155.534983530689	579.746481279140	887.201978270370	158.185430768648	615.156496934750	1055.727985532897	37.549959415498	601.067872814581	923.691130358843	38.911442118317	370.190383161187	992.308094376896	35.224604860967	284.944306570236	1077.498482383713	95.732076066244	307.711957684385	1204.174215747532	42.698809149457	270.728772378345	1072.150760700482	1095.853201132037	62.656852383260	1247.443764951546	904.196792391885	19.784329261105	999.287405776871	1104.258732610130	672.730324869243	1065.061614850143	850.042183510417	673.278922615256	
54	44.280642857143	857.759917643270	1008.764820355348	408.520243653282	1039.395107259355	1433.532697648142	210.275712276812	1140.500254771329	1371.138261382605	374.920052971811	1053.789039447787	1446.950895826292	546.672800069487	1017.167058515498	1499.847561545445	365.038490953232	1088.756165956742	952.610727812597	525.271485257070	1072.993641729853	963.553728877490	251.722301468196	1171.034080724913	780.183688162376	498.381058545495	1132.809404122697	661.446660265075	578.126072687647	1220.795290838480	619.531580268767	499.375334621885	1240.772177039904	509.566879619412	526.256438537519	1122.336052538044	751.059863882883	279.075256022129	1030.288311656166	634.371970629193	226.488401314481	1117.437157714596	558.059653009626	286.018972919309	1117.611442909807	488.944713012738	297.505875049439	1089.301895984880	416.606062922115	292.279174867149	996.173233835620	302.961158482513	246.010736967363	1046.293722350104	191.823609857028	317.983220333690	1167.903171143316	432.999864716200	538.866782293568	1050.341058029732	390.973987732124	605.377915015812	1039.039879608233	279.075162235651	561.726443954191	842.534812718742	213.410541103383	544.289444876212	1011.420456002068	153.146115947387	580.289784163704	902.727359880678	151.656955545527	615.293086333558	1075.311192560862	37.401588725550	601.321582962748	918.074980153235	38.943753729755	370.107308999966	986.747233721151	35.211666713058	284.867675032527	1071.957429928845	95.708030571499	307.603957604806	1198.640031798183	42.642443607709	270.686268971172	1076.821575445999	1098.377570855876	59.141854777722	1260.109883859262	914.111345606673	16.411688622419	987.464019312983	1106.756460982768	671.158510268994	1044.488178926368	850.474928052470	672.769909477997	
55	44.294428571429	856.972040939723	1009.525662033225	406.454750865810	1041.005319899828	1434.153351714281	209.311392350151	1140.201097282634	1371.629908513560	375.039111708607	1051.627373378954	1447.634607095602	545.757354979149	1017.044476390166	1500.440387695907	364.027881351883	1087.074162488740	953.605559150339	525.006494122087	1073.321884250284	963.890756186025	251.306648681696	1170.568566301861	782.727312121426	498.093314525673	1133.959314605452	663.895191117516	578.451240607953	1221.953699905653	622.596084842714	499.522748287252	1243.891221030476	513.746012324230	526.945571500857	1120.393390490397	750.413312021388	279.305451554132	1027.394225630465	634.546371974697	226.081748642744	1113.438432071601	557.476395411984	286.012372947804	1112.897088038046	488.508489872661	297.517353675424	1084.456552801451	416.440679545300	292.082533260293	991.000424632771	303.008601737159	245.625481430337	1040.909000736797	191.789418162533	317.791082173156	1173.440207715774	435.397079669801	539.602463668929	1057.565984018250	388.808554338319	605.810670887426	1050.872037193143	276.478893899321	562.280372801039	857.229745059258	202.659321954756	544.425803804281	1028.407628172934	149.807805899793	581.088089595682	919.785477406794	143.587091465036	615.672055276214	1096.906252465798	37.027530224277	602.106594779093	912.454029813990	38.967931295358	370.030374058999	981.178218156049	35.191723088461	284.793830262754	1066.405343854108	95.687143001383	307.502858037500	1193.096458815927	42.611464868938	270.651309785204	1081.099914053253	1100.802711068209	55.905220014453	1272.099482050570	924.236018789418	13.608008441643	976.257051484703	1109.518860766792	669.708913269778	1025.125137571976	851.611949299122	672.132694985919	
56	44.308214285714	856.216432930495	1010.264562996132	404.431575600966	1042.638823918822	1434.675679739560	208.483107490780	1139.923638644259	1372.070627187318	375.285130888718	1049.521007268537	1448.312628800686	544.929583214854	1016.918954145413	1500.965304853205	363.116790106878	1085.350024243343	954.446625308173	524.914444491506	1073.740308466963	964.200980333363	251.066700395383	1169.713128130377	784.752558661497	498.182005305691	1134.252078896374	665.882784748671	579.040109492456	1222.199341351786	624.970841298849	500.035191313853	1245.872129790822	517.521485694280	527.970884413541	1118.351836357131	749.754554415997	279.827216168021	1024.464125876480	634.756846894179	225.683047249519	1109.263491742252	556.895462877323	286.115288036162	1107.946045247342	488.094015540464	297.580800189770	1079.430268876507	416.302395971133	291.906370350365	985.713988645403	303.041044298455	245.245187645187	1035.464796594629	191.767816156628	317.604722760533	1178.278157668195	437.372012615160	540.618108111720	1064.661822176990	385.641794038970	606.587976627855	1063.226850821194	273.098261404219	563.103830325372	873.293146652599	190.174596591359	544.798826601299	1046.678937243449	145.771523447914	582.126021123992	938.406899321257	134.321150624672	616.336916034670	1120.289515292108	36.655806254981	603.340152352415	906.835568854741	38.983735792553	369.959492012395	975.604377235843	35.166673277214	284.722759836359	1060.846419066754	95.667783655615	307.411644615757	1187.546996122105	42.598386699191	270.624511519001	1085.041372435526	1103.073348653709	52.960942554731	1283.377060685711	934.439516333959	11.365377390347	965.739508256887	1112.447696270043	668.369060897020	1007.050340194210	853.280171691942	671.404574930267	
